<?xml version="1.0" encoding="UTF-8"?>
<svg id="Capa_1" data-name="Capa 1" xmlns="http://www.w3.org/2000/svg" version="1.1" viewBox="0 0 1034 1002.1">
  <defs>
    <style>
      .cls-1 {
        fill: #2d2d2b;
        stroke-width: 0px;
      }
    </style>
  </defs>
  <g>
    <g>
      <path class="cls-1" d="M792.6,81.4c-14.3,11.1-42.3,12.8-70.8,9.5-6.8,4.6-13.6,9.5-20.6,14.8-20,15.2-31.5,27.4-34.8,35.8-1.8,4.5-1.2,7.3,2,8.6,7.7,3.1,18.5-4.4,37.1-14.6l1.1.4c-18.3,10.1-30.3,19.2-40.3,15.2-6.1-2.4-8.2-8.5-5.3-15.9,3.7-9.3,15.2-21.2,31.7-33.7,5.6-4.3,11.5-8.5,17.2-12.4-3.1-.5-6.5-1.1-9.7-1.8-12.9-2.7-24.2-4.7-34.2-6.4l-4.8,3.7c-35,26.4-68.9,37.3-92.9,27.8-13.9-5.5-18.5-15.5-14.6-25.3,2.6-6.4,7.9-10.1,12.1-8.5,1.9.8,2.5,2.3,1.9,3.6-2,5.2-10.3,1.1-12.9,7.6-3,7.6,1.1,16.5,13.9,21.5,22.1,8.7,50.3-6.6,84-30.7.5-.4,1.1-.9,1.8-1.2-18.5-2.3-31.6-1.7-41.5,3.2l-.4-1.3c10.4-5,23.7-5.4,43.2-2.9,20.2-14.4,38-27.3,61.9-36.5v-.2c-18.7,5.1-25,4.5-30.4,2.4-6.9-2.7-9.9-8.9-11.9-17-2.7-10.2-5.4-16.6-15-20.5-20-7.9-41.8-1.6-48.4,15.2-3.9,9.8-1.3,18.3,8.9,22.3,13.1,5.1,27.8-.2,35.9-8.8l1,.8c-8.2,8.9-24.2,14.7-38.4,9.1-9.5-3.8-15.7-13.1-11.1-24.7,7-17.7,32.8-22.8,52.7-15,16,6.3,19.2,13.5,22,24.1,2,7.7,3.4,12.1,7.4,13.7,8.4,3.3,23.1-1.3,46.2-8l.5,1.1c-26.5,7.2-23.2,8.7-69.5,43.5,9.6,1.6,20.7,3.7,33.3,6.2l10.8,2c33.5-22.6,66.2-36.6,82.2-30.3,11.4,4.5,9.7,15-1,23.4ZM795.1,60.1c-12.2-4.8-40.1,8.2-72,29.9,26.9,3,51.9,1.1,67.3-10.5,11.2-8.5,12.3-16.4,4.7-19.4Z"/>
      <path class="cls-1" d="M689.4,153.4c2.2-3.1,5.4-5.7,10.3-8.2,6.2-3.1,15.5-6.3,23.9-7.7h-.1c-7.8.8-14.8,2.3-19.9,3.6l-1-.7c7.8-2.2,19.7-4.5,30-4.7,10.2-.4,15.9,1.3,19.4,3.7,4.8,3.4,3.9,8.6-3.1,13.3h.1c0,.1,12.3-4.6,12.3-4.6l5.8,4-43.4,17c-6.6,2.6-10.6,4.3-12.2,6.7-1.2,1.7-1,3.5.7,4.7,4,2.8,10.7,1.3,20-1.1,5.8-1.7,13.1-3.8,18.8-5.3l1,.7c-6,1.7-13.7,4-19.7,5.6-9.6,2.6-16.8,4.4-22,.8-3.4-2.4-3.6-6.3-.9-10.3,1.2-1.7,3-3.4,6.9-5.4h-.1c-4.6,1.4-10.2,2.8-14.3,3.3-5,.5-8.8.5-11.6-1.5-4.4-3.1-4.7-8.5-1-13.8ZM701.8,167.7c6.1-.9,16.9-3.7,25-6.9l16.1-6.2c8.4-3.3,14.4-9.6,8.7-13.5-4.6-3.2-12.3-1.8-20.8.6-11.2,2.8-18.9,5.4-27.9,9.6-3.2,1.6-7.7,3.8-10,5.9-3.9,3.2-4,6.9-1,9,2.4,1.7,5.5,2.1,9.9,1.6Z"/>
      <path class="cls-1" d="M732.8,186.9c2.1-2.5,5.2-4.2,9-5.3l37.9-10.4h-.1c-8.1.9-19.5,2.5-28.1,4.1l-.9-.8c11.1-2.2,23.8-3.7,35.6-5.5l6.4,5.4-45.2,12.6c-6.6,1.9-10.7,3.2-12.6,5.5-1.3,1.6-1.4,3.3.3,4.8,3.7,3.1,10.5,2.3,19.8.7,6.3-1,13.2-2.2,19.4-3.3l.9.8-20.1,3.6c-10,1.6-17.1,2.8-22-1.4-3.2-2.7-3.4-7-.3-10.7ZM819.3,157.1c1.7-2,4.6-2.2,6.6-.5,2,1.7,2.2,4.6.5,6.6-1.7,2-4.6,2.2-6.6.5-2-1.7-2.2-4.6-.6-6.6Z"/>
      <path class="cls-1" d="M804.1,223.9c-6.5.7-14,1.6-20.3,2.1-10,.8-17.3,1.5-21.8-3-3-2.9-2.9-7.2.5-10.7,2.3-2.3,5.5-3.8,9.4-4.6l23.9-4c8.1-1.3,13.5-2,16.4-5,2-2,1.8-3.3-.4-6-.6-.9-1.4-1.6-1.7-2.2-9.7,1.4-22.6,3.2-35.1,4.5l-.9-.9c13.1-1.4,24.5-2.9,35.5-4.9-.6-1.3-.4-2.8,1.1-4.3,3.4-3.5,10.6-6.8,14.2-3.3,1.5,1.5,1.4,3.1.4,4-3.7,3.7-10.6-3.1-14.1.5-1.6,1.6-.8,3.1,1.4,5.7,4.2,4.9,5.3,8.2,1.2,12.4-2.8,2.8-7.2,4.3-14.5,5.6l-22.2,3.5c-6.7,1.1-10.9,2.4-13,4.5-1.5,1.5-1.7,3.2,0,4.8,3.5,3.4,10.3,3.1,19.9,2.3l19.5-2,.9.9Z"/>
      <path class="cls-1" d="M939.9,320.8c-6.9.3-14.4,1-22.4,1.7-48.7,4.8-80.3-4.5-97.1-32.4-8.4-14-7.8-26.8,1.4-32.4,8-4.8,18.5-1.4,24.6,8.7,5.3,8.8,6,17.8,2.5,19.9-1.6,1-3.4.4-4-.6-2.6-4.3,5.8-10.2.2-19.5-4.8-8-13.6-9.6-21.1-5.1-7.7,4.6-10.5,15.2-2.6,28.3,17.3,28.8,45.7,28.9,91.9,24.8,6.9-.7,13.4-1,19.5-1.2-3.6-4.3-7-8.9-9.8-13.5-13.7-22.9-14.1-41.3,1.1-50.4,13.5-8.1,34.3-2.4,55.7,20.1l-.9.8c-20.7-21.7-39.2-24.6-52.4-16.6-13.2,7.9-15,24.4-2.3,45.6,2.9,4.9,6.3,9.5,10.3,14.1,36.8-.9,59.3,6.4,66.3,18.2,3.6,5.9,2.1,10.9-3.1,14-12.9,7.8-38.2-5-57.7-24.4ZM995.8,342c4.5-2.7,6.4-6.2,3.7-10.7-5.2-8.6-23.8-12.4-57.8-10.7,18.5,18,41.8,28.9,54.1,21.4Z"/>
      <path class="cls-1" d="M915.5,355.1v-.2c-10.4-3.6-21.7-7-31.4-10.1l-.5-1.1c19.7,5.9,30.2,9.6,41,12.7l-5.2-12.7,1.6.3,5.3,12.8c2.7.7,5.9,1.5,8.6,2.1l14.3,2.9,3,7.4-22.7-4.7,7.1,17.1-1.6-.3-7.1-17.1-48.7-9.9c-5.5-1.1-11-2-14.7-.5-3.2,1.3-4.6,4.2-3.3,7.5,2.3,5.6,9,9.4,18.4,12.3,6.1,2,12.8,4.1,18.7,5.8l.5,1.1c-6.3-1.7-13.5-4-19.5-5.8-9.1-3-17-6.7-20-13.9-2.3-5.4-.5-10.7,5.3-13.1,4.5-1.9,9-1.5,13.9-.3l36.9,7.6Z"/>
      <path class="cls-1" d="M878.2,380.4c4.3-1.3,9.3-.2,14.5,1.5l32,10.4v-.2c-7.4-3.6-17.7-8.5-25.8-11.9l-.3-1.2c10.5,4.3,21.9,10,32.8,14.9l2.4,8-41.2-13c-4.8-1.6-10.1-3.7-13.9-3.7-4.1.1-5.9,2.6-4.9,6,.9,3,3.2,5.2,6.9,7.5,4.4,2.7,15.8,7.8,23.5,10.4l35.1,11.2,2.3,7.6-44.4-14c-6.8-2.2-11.1-3.4-14.1-2.5-1.8.5-2.7,1.9-2.1,4,1.4,4.7,7.6,8.1,16.3,11.8l18,7.7.3,1.2c-6-2.6-13-5.4-18.8-8-8.7-3.9-15.9-7.2-17.6-13.2-1.3-4.3,1.1-7.2,5.4-8.5,2.3-.7,5-.9,9.4,0v-.2c-4.6-1.9-10.2-4.3-13.7-6.6-4.4-2.5-7.2-5.3-8.3-9.1-1.2-4,.4-8.4,6.4-10.2Z"/>
      <path class="cls-1" d="M896.4,434.2c3.8-.6,7.9,0,13.1,1.7,6.5,2.3,15.3,6.8,22.1,11.9v-.2c-6.1-5-12-8.9-16.5-11.7l-.2-1.2c7,4.1,16.9,11.1,24.2,18.4,7.3,7.1,10.1,12.4,10.7,16.5.9,5.5-3,8.4-9.9,7.4v.2s92.7,42.8,92.7,42.8l1.3,7.9-125-58c-6.4-2.8-10.4-4.6-13.3-4.2-2.1.3-3.2,1.8-2.9,3.8.8,4.8,6.5,8.6,14.7,13.6,5.2,3,11.8,6.9,16.9,9.9l.2,1.2c-5.4-3.2-12.4-7.1-17.6-10.3-8.5-5.1-14.8-9-15.8-15.4-.7-4.1,2.2-7,6.8-7.8,2.2-.4,4.9,0,8.6,1.2v-.2c-4.3-2.3-9.1-5.4-12.4-8-3.9-3.2-6.4-6-7-9.4-.9-5.3,2.9-9.2,9.2-10.3ZM894.7,453c4.8,3.8,14.4,9.6,22.3,13.2l15.6,7.3c8.1,3.8,16.9,3.8,15.8-3.1-.9-5.5-7.2-10.1-14.8-14.6-9.8-6.1-17.1-10.1-26.2-13.5-3.4-1.2-8-2.9-11.2-3.1-5-.6-7.8,2-7.2,5.5.5,2.9,2.3,5.4,5.7,8.2Z"/>
      <path class="cls-1" d="M902.2,488.8c3.3-.2,6.6.8,10.1,2.8l33.7,20.1v-.2c-6.4-5.2-15.4-12.2-22.4-17.3v-1.2c9.2,6.5,19.1,14.6,28.5,21.8l.5,8.3-40.4-23.9c-5.9-3.5-9.7-5.5-12.7-5.3-2.1.1-3.4,1.2-3.2,3.5.3,4.8,5.6,9.2,13.2,14.8,5.1,3.8,10.7,8,15.8,11.7v1.2c0,0-16.5-12-16.5-12-8-6.1-13.8-10.4-14.2-16.8-.3-4.1,2.7-7.3,7.5-7.6ZM983.7,530.5c2.6-.2,4.8,1.8,5,4.4.2,2.6-1.8,4.8-4.4,5-2.6.2-4.8-1.8-5-4.4-.2-2.6,1.8-4.8,4.4-5Z"/>
      <path class="cls-1" d="M924.1,581.3c-10.3-9-14.1-15.3-13.8-23.5,0-.9,0-1.6.2-2.2l-1.8-2c-6-6.8-12.2-15.5-11.9-24.6.2-6.1,4.6-9.6,11-9.4,3.8.1,7.7,1.6,12.5,4.2,6,3.5,13.7,9.6,19.4,15.9v-.2c-5-6.1-10.1-11.1-13.9-14.6v-1.2c6.1,5.4,14.5,14.1,20.3,22.6,5.8,8.3,7.5,14.4,7.4,19.8-.2,6.1-4.6,9.6-11,9.4-3.8-.1-7.8-1.6-12.5-4.2-6-3.3-12.1-8.2-18.6-14.8v1.4c-.3,8,3.5,14,12.8,22.2v1.2ZM913.3,550.1c2.5-2.3,6.2-3.4,10.7-3.3,9.7.3,21.5,7.1,25.8,12.6v-.2c-2.1-3.7-5.3-7.3-9.5-11.2-8.4-7.9-14.9-13.1-23.2-18.2-4.3-2.6-9.5-5.5-14.2-5.6-3.1,0-4.7,1.4-4.8,4.2-.2,5.9,5.3,12.5,12.1,18.7,1.2,1.1,2.2,2,3.2,3ZM924.1,547.8c-4.3-.1-7.8.8-10,3,6.6,5.9,12.2,10.3,19.1,14.5,4.3,2.6,9.5,5.5,14.2,5.6,3.1,0,4.7-1.4,4.8-4,.3-8.3-16.9-18.7-28.2-19.1Z"/>
    </g>
    <path class="cls-1" d="M911.9,651.3c-80.9,322.1-461.7,453.6-726.5,255C-36,741.2-64,415.6,127.9,216.5c89.8-94.6,221.2-147.6,351.5-141.7-174.6-3.1-342,93-422.3,250-127.4,237.6-11.6,549.2,242.4,642.3,254.5,98.3,543-54.6,612.4-315.8h0Z"/>
  </g>
  <g>
    <g>
      <path class="cls-1" d="M423.6,753.9c-1.5-10.4-3.5-22-6.1-34.8-2.6-12.8-5.8-25.7-9.5-38.7l-102-335.5h3.9l-90.8,297.6c-6.3,21.2-11.5,42-15.6,62.4-4.1,20.4-6.5,36.8-7.2,49h-26.2c4.1-8.9,9.2-21.8,15.3-38.7,6.1-16.9,12.2-35,18.1-54.3l93.6-304.3c1.9-5.9,3.2-12.4,3.9-19.5.7-7.1.7-13,0-17.8h34.6l108.1,352.8c8.9,29.4,18.6,56.7,29,81.9"/>
      <path class="cls-1" d="M265,604.5c-17.7-1.2-36.4.2-51.6,9.5-20.2,12.5-30.3,46.3-31.1,70.1-.9,23.8,6,47,12.8,69.8-10-25-20.1-50.5-21.2-77.4-1.1-26.9,8.3-55.7,30.5-71,18.8-13,43.5-14.1,66.1-11.1,40.4,5.3,78.6,23.5,109.5,49.8,19.4,16.6,71,82.6,73.9,109.7-39.3-68.9-104.1-143.6-188.9-149.4Z"/>
    </g>
    <g>
      <path class="cls-1" d="M498.6,680.7v-287.6c0-28.6-1.5-53.1-4.5-73.6h40.7v434.7h-40.7c3-20.4,4.5-44.9,4.5-73.6ZM642.6,331c-22.5-2.4-45.4-3.6-68.8-3.6h-61.9v-7.8h215.1l-14.5,23.4c-24.2-5.6-47.5-9.6-69.9-12ZM629.5,530.5c-14.5-.9-32.7-1.4-54.6-1.4h-56.3v-8.9h56.3c21.9,0,40.1-.5,54.6-1.4,14.5-.9,30.7-2.1,48.5-3.6v18.9c-17.8-1.5-34-2.7-48.5-3.6ZM520.9,746.5h63.5c30.5,0,58.6-1.6,84.4-4.7,25.8-3.2,50.8-7.9,75-14.2l-9.5,26.7h-213.4v-7.8Z"/>
      <path class="cls-1" d="M416.9,370.8c-16.9,34.6-11.1,78.5,11.9,109.3,23,30.8,61.3,48.4,99.5,48.7-33.9-12.6-69.8-26.6-91-56.2-20.2-28.2-22.6-68.4-5.9-98.9,16.7-30.5,51.7-49.7,86-47.3-2.9-.2-7.6-5.5-11.2-6.4-4.6-1.1-10.1-.6-14.7-.3-10.4.8-20.7,3.6-30.2,8-18.9,8.8-35.1,24.1-44.4,43Z"/>
    </g>
  </g>
</svg>